<?xml version="1.0" encoding="UTF-8"?>
<!DOCTYPE svg PUBLIC "-//W3C//DTD SVG 1.1//EN" "http://www.w3.org/Graphics/SVG/1.1/DTD/svg11.dtd">
<svg xmlns="http://www.w3.org/2000/svg" version="1.1" width="572px" height="436px" style="shape-rendering:geometricPrecision; text-rendering:geometricPrecision; image-rendering:optimizeQuality; fill-rule:evenodd; clip-rule:evenodd" xmlns:xlink="http://www.w3.org/1999/xlink">
<g><path style="opacity:1" fill="#424054" d="M 310.5,75.5 C 307.119,76.4274 304.286,75.4274 302,72.5C 301.651,73.4725 300.818,74.3058 299.5,75C 300.252,75.6708 300.586,76.5041 300.5,77.5C 296.641,74.4665 292.474,72.7999 288,72.5C 281.567,75.9664 275.067,79.2997 268.5,82.5C 269.362,80.9048 269.862,79.2381 270,77.5C 268.172,78.7525 266.339,78.7525 264.5,77.5C 272.323,72.0843 280.657,67.4176 289.5,63.5C 296.982,66.7384 303.982,70.7384 310.5,75.5 Z"/></g>
<g><path style="opacity:1" fill="#413f54" d="M 306.5,85.5 C 307.218,87.1368 307.384,88.8034 307,90.5C 305.421,89.2004 304.255,89.5337 303.5,91.5C 298.668,87.9113 293.335,85.7446 287.5,85C 275.144,91.8434 262.811,98.6768 250.5,105.5C 250.967,102.703 252.633,101.369 255.5,101.5C 255.279,99.3364 254.279,97.6697 252.5,96.5C 264.644,89.2588 276.977,82.2588 289.5,75.5C 295.724,78.1036 301.391,81.4369 306.5,85.5 Z"/></g>
<g><path style="opacity:1" fill="#3f3d53" d="M 310.5,75.5 C 331.993,86.7433 352.993,98.7433 373.5,111.5C 374.242,113.426 375.242,115.259 376.5,117C 376.167,117.167 375.833,117.333 375.5,117.5C 372.982,115.127 369.982,114.127 366.5,114.5C 363.085,112.746 359.585,111.079 356,109.5C 355.667,109.833 355.333,110.167 355,110.5C 352.821,107.989 350.321,105.822 347.5,104C 346.255,103.209 344.922,102.709 343.5,102.5C 343.5,101.833 343.167,101.5 342.5,101.5C 339.281,99.2817 335.614,98.115 331.5,98C 329.606,96.8989 328.939,95.5655 329.5,94C 326.754,92.2503 323.754,91.2503 320.5,91C 322.301,90.6827 322.634,90.016 321.5,89C 318.344,86.719 315.011,85.719 311.5,86C 308.934,81.7197 305.267,78.8864 300.5,77.5C 300.586,76.5041 300.252,75.6708 299.5,75C 300.818,74.3058 301.651,73.4725 302,72.5C 304.286,75.4274 307.119,76.4274 310.5,75.5 Z"/></g>
<g><path style="opacity:1" fill="#3e3d52" d="M 264.5,77.5 C 266.339,78.7525 268.172,78.7525 270,77.5C 269.862,79.2381 269.362,80.9048 268.5,82.5C 248.582,94.1558 228.582,105.822 208.5,117.5C 206.459,117.854 204.626,117.854 203,117.5C 203.152,115.924 203.985,114.591 205.5,113.5C 205.137,112.817 204.804,112.15 204.5,111.5C 224.559,100.141 244.559,88.8074 264.5,77.5 Z"/></g>
<g><path style="opacity:1" fill="#47455a" d="M 306.5,85.5 C 317.065,90.8058 327.732,96.8058 338.5,103.5C 337.099,103.971 335.766,104.638 334.5,105.5C 336.649,107.153 338.316,109.153 339.5,111.5C 327.527,104.845 315.527,98.1788 303.5,91.5C 304.255,89.5337 305.421,89.2004 307,90.5C 307.384,88.8034 307.218,87.1368 306.5,85.5 Z"/></g>
<g><path style="opacity:1" fill="#000000" d="M 342.5,101.5 C 343.167,101.5 343.5,101.833 343.5,102.5C 342.279,103.465 340.946,103.298 339.5,102C 340.448,101.517 341.448,101.351 342.5,101.5 Z"/></g>
<g><path style="opacity:1" fill="#3e3d54" d="M 252.5,96.5 C 254.279,97.6697 255.279,99.3364 255.5,101.5C 252.633,101.369 250.967,102.703 250.5,105.5C 243.175,109.83 235.841,114.163 228.5,118.5C 224.679,121.499 223.179,120.499 224,115.5C 224.667,116.833 225.333,116.833 226,115.5C 226.49,114.207 226.657,112.873 226.5,111.5C 234.84,105.995 243.507,100.995 252.5,96.5 Z"/></g>
<g><path style="opacity:1" fill="#4d4b61" d="M 290.5,108.5 C 290.787,110.121 291.787,111.121 293.5,111.5C 293.833,112.833 294.167,114.167 294.5,115.5C 289.725,123.128 292.059,127.128 301.5,127.5C 297.983,128.837 294.483,128.504 291,126.5C 290.667,122.5 290.333,118.5 290,114.5C 291.39,127.377 286.057,131.377 274,126.5C 272,119.167 272,111.833 274,104.5C 279.028,101.902 284.028,101.902 289,104.5C 289.21,106.058 289.71,107.391 290.5,108.5 Z"/></g>
<g><path style="opacity:1" fill="#403c5a" d="M 301.5,127.5 C 292.059,127.128 289.725,123.128 294.5,115.5C 294.167,114.167 293.833,112.833 293.5,111.5C 291.787,111.121 290.787,110.121 290.5,108.5C 289.965,105.762 290.965,103.928 293.5,103C 296.5,102.333 299.5,102.333 302.5,103C 304.259,104.008 305.426,105.508 306,107.5C 307.032,114.011 306.532,120.344 304.5,126.5C 303.675,127.386 302.675,127.719 301.5,127.5 Z"/></g>
<g><path style="opacity:1" fill="#444257" d="M 338.5,103.5 C 346.311,108.241 354.311,112.741 362.5,117C 363.576,118.726 363.743,120.559 363,122.5C 354.92,128.124 346.753,133.624 338.5,139C 333.726,141.122 328.726,142.288 323.5,142.5C 324.263,141.732 325.263,141.232 326.5,141C 325.5,140.667 324.5,140.333 323.5,140C 325.441,139.257 327.274,139.424 329,140.5C 331.102,138.027 330.768,137.36 328,138.5C 324.794,137.232 321.627,136.232 318.5,135.5C 323.914,135.157 329.247,134.323 334.5,133C 340.248,129.042 346.081,125.209 352,121.5C 352.688,120.668 352.521,120.002 351.5,119.5C 347.187,117.166 343.187,114.5 339.5,111.5C 338.316,109.153 336.649,107.153 334.5,105.5C 335.766,104.638 337.099,103.971 338.5,103.5 Z"/></g>
<g><path style="opacity:1" fill="#4d4d61" d="M 226.5,111.5 C 226.657,112.873 226.49,114.207 226,115.5C 225.333,116.833 224.667,116.833 224,115.5C 223.179,120.499 224.679,121.499 228.5,118.5C 228.511,120.017 229.177,121.184 230.5,122C 235.097,125.123 239.763,127.957 244.5,130.5C 243.883,130.611 243.383,130.944 243,131.5C 241.266,130.751 239.433,130.251 237.5,130C 238.888,129.111 238.722,128.611 237,128.5C 236.5,128.667 236,128.833 235.5,129C 236.728,130.49 236.728,131.99 235.5,133.5C 229.014,130.525 223.514,126.192 219,120.5C 218.333,118.833 218.333,117.167 219,115.5C 221.448,114.027 223.948,112.693 226.5,111.5 Z"/></g>
<g><path style="opacity:1" fill="#49475b" d="M 373.5,111.5 C 380.167,113.5 384.5,117.833 386.5,124.5C 385.672,130.987 385.172,137.654 385,144.5C 384.946,137.431 384.446,132.431 383.5,129.5C 382.1,128.9 381.1,127.9 380.5,126.5C 379.883,124.771 378.883,123.271 377.5,122C 373.42,119.971 369.754,117.471 366.5,114.5C 369.982,114.127 372.982,115.127 375.5,117.5C 375.833,117.333 376.167,117.167 376.5,117C 375.242,115.259 374.242,113.426 373.5,111.5 Z"/></g>
<g><path style="opacity:1" fill="#4d4d5f" d="M 380.5,126.5 C 381.1,127.9 382.1,128.9 383.5,129.5C 383.131,140.028 382.964,150.695 383,161.5C 381.978,162.354 381.145,163.354 380.5,164.5C 381.363,165.726 381.363,167.06 380.5,168.5C 379.395,169.6 378.062,170.267 376.5,170.5C 375.871,168.003 374.204,166.67 371.5,166.5C 374.431,164.752 377.264,162.752 380,160.5C 380.5,149.172 380.667,137.838 380.5,126.5 Z"/></g>
<g><path style="opacity:1" fill="#484759" d="M 204.5,111.5 C 204.804,112.15 205.137,112.817 205.5,113.5C 203.985,114.591 203.152,115.924 203,117.5C 204.626,117.854 206.459,117.854 208.5,117.5C 205.979,119.019 203.479,120.686 201,122.5C 200.027,124.392 199.36,126.392 199,128.5C 198.5,139.161 198.333,149.828 198.5,160.5C 197.448,160.649 196.448,160.483 195.5,160C 196.833,159 196.833,158 195.5,157C 198.167,156.333 198.167,155.667 195.5,155C 195.479,152.095 195.813,149.095 196.5,146C 194.777,145.477 193.444,144.477 192.5,143C 193.185,140.205 193.685,137.372 194,134.5C 194.777,137.429 194.61,140.263 193.5,143C 193.833,143.167 194.167,143.333 194.5,143.5C 195.262,142.372 195.929,141.205 196.5,140C 195.843,135.851 195.343,131.351 195,126.5C 194.667,126.167 194.333,125.833 194,125.5C 193.764,127.119 192.931,128.119 191.5,128.5C 192.434,120.233 196.767,114.567 204.5,111.5 Z"/></g>
<g><path style="opacity:1" fill="#424056" d="M 244.5,130.5 C 260.231,132.707 275.898,135.374 291.5,138.5C 294.565,137.936 297.565,137.269 300.5,136.5C 300.489,138.017 299.823,139.184 298.5,140C 299.449,140.617 300.282,140.451 301,139.5C 301.7,141.032 302.866,142.032 304.5,142.5C 306.823,141.328 309.156,141.328 311.5,142.5C 304.308,143.654 296.975,144.82 289.5,146C 287.359,146.573 285.359,147.406 283.5,148.5C 281.01,147.91 278.343,147.743 275.5,148C 276.328,147.085 277.328,146.419 278.5,146C 277.584,145.722 276.918,145.222 276.5,144.5C 276.918,143.778 277.584,143.278 278.5,143C 269.145,141.812 259.811,140.479 250.5,139C 245.272,137.716 240.272,135.883 235.5,133.5C 236.728,131.99 236.728,130.49 235.5,129C 236,128.833 236.5,128.667 237,128.5C 238.722,128.611 238.888,129.111 237.5,130C 239.433,130.251 241.266,130.751 243,131.5C 243.383,130.944 243.883,130.611 244.5,130.5 Z"/></g>
<g><path style="opacity:1" fill="#373649" d="M 318.5,135.5 C 321.627,136.232 324.794,137.232 328,138.5C 330.768,137.36 331.102,138.027 329,140.5C 327.274,139.424 325.441,139.257 323.5,140C 324.5,140.333 325.5,140.667 326.5,141C 325.263,141.232 324.263,141.732 323.5,142.5C 319.5,142.5 315.5,142.5 311.5,142.5C 309.156,141.328 306.823,141.328 304.5,142.5C 302.866,142.032 301.7,141.032 301,139.5C 300.282,140.451 299.449,140.617 298.5,140C 299.823,139.184 300.489,138.017 300.5,136.5C 306.484,135.926 312.484,135.593 318.5,135.5 Z"/></g>
<g><path style="opacity:1" fill="#3b3950" d="M 198.5,160.5 C 198.5,160.833 198.5,161.167 198.5,161.5C 195.283,162.348 194.949,164.182 197.5,167C 196.692,167.308 196.025,167.808 195.5,168.5C 197.278,169.726 198.278,171.393 198.5,173.5C 198.5,189.5 198.5,205.5 198.5,221.5C 197.751,222.531 197.085,223.698 196.5,225C 197.848,227.513 199.848,229.347 202.5,230.5C 199.761,230.229 196.927,230.229 194,230.5C 192.989,229.944 192.156,229.278 191.5,228.5C 191.5,195.167 191.5,161.833 191.5,128.5C 192.931,128.119 193.764,127.119 194,125.5C 194.333,125.833 194.667,126.167 195,126.5C 195.343,131.351 195.843,135.851 196.5,140C 195.929,141.205 195.262,142.372 194.5,143.5C 194.167,143.333 193.833,143.167 193.5,143C 194.61,140.263 194.777,137.429 194,134.5C 193.685,137.372 193.185,140.205 192.5,143C 193.444,144.477 194.777,145.477 196.5,146C 195.813,149.095 195.479,152.095 195.5,155C 198.167,155.667 198.167,156.333 195.5,157C 196.833,158 196.833,159 195.5,160C 196.448,160.483 197.448,160.649 198.5,160.5 Z"/></g>
<g><path style="opacity:1" fill="#48465a" d="M 276.5,144.5 C 276.918,145.222 277.584,145.722 278.5,146C 277.328,146.419 276.328,147.085 275.5,148C 278.343,147.743 281.01,147.91 283.5,148.5C 273.619,154.051 264.286,160.384 255.5,167.5C 255.167,164.5 256.5,163.167 259.5,163.5C 259.539,161.641 258.706,160.308 257,159.5C 252.371,162.755 249.204,167.088 247.5,172.5C 245.072,169.861 245.072,167.195 247.5,164.5C 255.258,159.577 262.591,154.077 269.5,148C 271.577,146.295 273.91,145.128 276.5,144.5 Z"/></g>
<g><path style="opacity:1" fill="#4d4c5e" d="M 386.5,124.5 C 387.484,140.089 387.817,155.756 387.5,171.5C 385.194,168.77 382.861,168.436 380.5,170.5C 380.5,169.833 380.5,169.167 380.5,168.5C 381.363,167.06 381.363,165.726 380.5,164.5C 381.145,163.354 381.978,162.354 383,161.5C 382.964,150.695 383.131,140.028 383.5,129.5C 384.446,132.431 384.946,137.431 385,144.5C 385.172,137.654 385.672,130.987 386.5,124.5 Z"/></g>
<g><path style="opacity:1" fill="#434458" d="M 371.5,166.5 C 374.204,166.67 375.871,168.003 376.5,170.5C 375.058,171.82 374.392,173.486 374.5,175.5C 373.681,178.305 373.181,181.305 373,184.5C 372.667,183.167 372.333,181.833 372,180.5C 371.667,185.5 371.333,190.5 371,195.5C 370.667,195.167 370.333,194.833 370,194.5C 369.667,195.833 369.333,197.167 369,198.5C 368.814,195.964 368.314,193.631 367.5,191.5C 367.819,186.637 367.486,181.97 366.5,177.5C 363.724,176.911 361.39,175.578 359.5,173.5C 363.465,171.182 367.465,168.848 371.5,166.5 Z"/></g>
<g><path style="opacity:1" fill="#46445c" d="M 303.5,165.5 C 300.882,167.213 298.215,167.546 295.5,166.5C 289.339,168.247 283.673,171.08 278.5,175C 273.207,177.264 267.873,179.431 262.5,181.5C 260.929,180.691 259.262,180.357 257.5,180.5C 255.259,179.379 252.925,178.213 250.5,177C 248.859,175.871 247.859,174.371 247.5,172.5C 249.204,167.088 252.371,162.755 257,159.5C 258.706,160.308 259.539,161.641 259.5,163.5C 256.5,163.167 255.167,164.5 255.5,167.5C 253.534,168.255 253.2,169.421 254.5,171C 257.217,173.076 260.217,173.743 263.5,173C 274.525,168.152 285.525,163.319 296.5,158.5C 299.488,160.111 301.822,162.444 303.5,165.5 Z"/></g>
<g><path style="opacity:1" fill="#474559" d="M 303.5,165.5 C 310.525,171.529 317.525,177.529 324.5,183.5C 322.54,184.448 320.54,184.614 318.5,184C 319.337,185.011 319.67,186.178 319.5,187.5C 310.851,181.181 302.851,174.181 295.5,166.5C 298.215,167.546 300.882,167.213 303.5,165.5 Z"/></g>
<g><path style="opacity:1" fill="#4b4a5c" d="M 387.5,171.5 C 387.5,188.5 387.5,205.5 387.5,222.5C 383.901,222.262 383.567,223.262 386.5,225.5C 385.946,230.771 383.279,232.438 378.5,230.5C 378.5,229.167 378.5,227.833 378.5,226.5C 379.117,226.611 379.617,226.944 380,227.5C 380.5,208.503 380.667,189.503 380.5,170.5C 382.861,168.436 385.194,168.77 387.5,171.5 Z"/></g>
<g><path style="opacity:1" fill="#48465c" d="M 198.5,161.5 C 207.436,170.647 215.936,180.314 224,190.5C 224.816,191.823 225.983,192.489 227.5,192.5C 225.95,197.651 224.283,202.651 222.5,207.5C 221.681,204.695 221.181,201.695 221,198.5C 218,194.5 215,190.5 212,186.5C 211.5,196.494 211.334,206.494 211.5,216.5C 217.979,217.491 224.646,217.824 231.5,217.5C 231.611,218.117 231.944,218.617 232.5,219C 231.3,220.031 229.966,220.865 228.5,221.5C 227.353,221.182 226.519,220.516 226,219.5C 223.144,221.828 219.977,222.161 216.5,220.5C 214.224,221.213 211.891,221.713 209.5,222C 208.584,222.278 207.918,222.778 207.5,223.5C 206.85,223.196 206.183,222.863 205.5,222.5C 204.667,207.845 204.167,193.178 204,178.5C 202.296,176.627 200.463,174.96 198.5,173.5C 198.278,171.393 197.278,169.726 195.5,168.5C 196.025,167.808 196.692,167.308 197.5,167C 194.949,164.182 195.283,162.348 198.5,161.5 Z"/></g>
<g><path style="opacity:1" fill="#3b3951" d="M 257.5,180.5 C 257.5,181.167 257.833,181.5 258.5,181.5C 259.17,184.338 260.504,186.838 262.5,189C 260.973,190.032 259.64,191.199 258.5,192.5C 258.461,191.417 258.127,190.417 257.5,189.5C 254.801,188.271 252.135,188.271 249.5,189.5C 249.389,188.883 249.056,188.383 248.5,188C 246.5,187.333 244.5,187.333 242.5,188C 242.833,188.333 243.167,188.667 243.5,189C 241.091,189.748 238.925,190.915 237,192.5C 236.5,192.167 236,191.833 235.5,191.5C 236.791,190.473 236.791,189.473 235.5,188.5C 241.809,183.283 249.142,180.617 257.5,180.5 Z"/></g>
<g><path style="opacity:1" fill="#3e3c52" d="M 359.5,173.5 C 361.39,175.578 363.724,176.911 366.5,177.5C 360.313,180.773 354.146,185.106 348,190.5C 345.966,193.706 344.133,197.04 342.5,200.5C 344.404,203.855 344.737,207.188 343.5,210.5C 343.649,209.448 343.483,208.448 343,207.5C 342.667,207.833 342.333,208.167 342,208.5C 341.751,207.376 341.251,206.376 340.5,205.5C 339.476,206.853 338.143,207.52 336.5,207.5C 336.628,205.345 336.128,203.345 335,201.5C 330.235,196.228 325.069,191.561 319.5,187.5C 319.67,186.178 319.337,185.011 318.5,184C 320.54,184.614 322.54,184.448 324.5,183.5C 328.819,186.144 333.152,188.811 337.5,191.5C 341.033,187.655 344.7,183.822 348.5,180C 352.524,178.326 356.191,176.159 359.5,173.5 Z"/></g>
<g><path style="opacity:1" fill="#3d3b52" d="M 249.5,189.5 C 242.369,191.984 235.869,195.651 230,200.5C 229.503,202.81 229.337,205.143 229.5,207.5C 229.131,209.441 228.464,211.275 227.5,213C 227.833,213.167 228.167,213.333 228.5,213.5C 229.167,212.5 229.833,211.5 230.5,210.5C 243.129,212.211 243.129,216.544 230.5,223.5C 222.833,223.5 215.167,223.5 207.5,223.5C 207.918,222.778 208.584,222.278 209.5,222C 211.891,221.713 214.224,221.213 216.5,220.5C 219.977,222.161 223.144,221.828 226,219.5C 226.519,220.516 227.353,221.182 228.5,221.5C 229.966,220.865 231.3,220.031 232.5,219C 231.944,218.617 231.611,218.117 231.5,217.5C 232.738,217.19 232.738,216.69 231.5,216C 230.552,215.517 229.552,215.351 228.5,215.5C 225.345,213.681 223.345,211.015 222.5,207.5C 224.283,202.651 225.95,197.651 227.5,192.5C 229.853,190.657 232.52,189.323 235.5,188.5C 236.791,189.473 236.791,190.473 235.5,191.5C 236,191.833 236.5,192.167 237,192.5C 238.925,190.915 241.091,189.748 243.5,189C 243.167,188.667 242.833,188.333 242.5,188C 244.5,187.333 246.5,187.333 248.5,188C 249.056,188.383 249.389,188.883 249.5,189.5 Z"/></g>
<g><path style="opacity:1" fill="#434257" d="M 258.5,181.5 C 260.371,181.859 261.871,182.859 263,184.5C 264.669,188.346 265.836,192.346 266.5,196.5C 268.718,197.924 270.218,199.924 271,202.5C 271.678,206.221 271.511,209.888 270.5,213.5C 269.929,218.717 268.095,219.384 265,215.5C 262.457,216.876 262.291,218.043 264.5,219C 264,219.5 263.5,220 263,220.5C 260.708,220.445 258.541,220.445 256.5,220.5C 259.234,217.375 261.734,214.042 264,210.5C 264.667,208.167 264.667,205.833 264,203.5C 262.701,203.034 261.201,203.034 259.5,203.5C 259.062,203.565 258.728,203.399 258.5,203C 259.966,202.365 261.3,201.531 262.5,200.5C 264.895,201.523 265.895,200.523 265.5,197.5C 264.022,197.762 262.689,197.429 261.5,196.5C 262.428,195.232 262.595,193.899 262,192.5C 260.951,194.107 259.451,194.773 257.5,194.5C 257.328,193.508 257.662,192.842 258.5,192.5C 259.64,191.199 260.973,190.032 262.5,189C 260.504,186.838 259.17,184.338 258.5,181.5 Z"/></g>
<g><path style="opacity:1" fill="#434255" d="M 327.5,212.5 C 326.737,213.268 325.737,213.768 324.5,214C 326.592,214.953 326.925,216.286 325.5,218C 327.432,219.352 328.766,221.185 329.5,223.5C 331.979,219.432 333.646,219.765 334.5,224.5C 334.564,225.365 334.897,226.365 335.5,227.5C 334.5,228.167 333.5,228.833 332.5,229.5C 331.989,227.805 331.322,226.139 330.5,224.5C 329.168,226.534 327.834,228.534 326.5,230.5C 327.662,226.462 326.828,222.796 324,219.5C 319.926,215.881 315.759,212.381 311.5,209C 307.907,205.915 304.907,202.415 302.5,198.5C 302.608,197.558 302.941,196.725 303.5,196C 305.167,195.333 306.833,195.333 308.5,196C 314.705,201.709 321.039,207.209 327.5,212.5 Z"/></g>
<g><path style="opacity:1" fill="#3e3d52" d="M 259.5,203.5 C 254.871,206.821 250.204,210.154 245.5,213.5C 242.303,212.888 240.969,210.888 241.5,207.5C 247.2,203.646 252.533,199.312 257.5,194.5C 259.451,194.773 260.951,194.107 262,192.5C 262.595,193.899 262.428,195.232 261.5,196.5C 262.689,197.429 264.022,197.762 265.5,197.5C 265.895,200.523 264.895,201.523 262.5,200.5C 261.3,201.531 259.966,202.365 258.5,203C 258.728,203.399 259.062,203.565 259.5,203.5 Z"/></g>
<g><path style="opacity:1" fill="#525262" d="M 374.5,175.5 C 374.83,191.009 374.496,206.342 373.5,221.5C 373.439,219.408 372.439,217.908 370.5,217C 371.641,211.25 371.807,205.416 371,199.5C 370.667,204.833 370.333,210.167 370,215.5C 369.667,213.833 369.333,212.167 369,210.5C 368.774,213.095 368.274,215.595 367.5,218C 367.833,218.333 368.167,218.667 368.5,219C 365.77,219.728 363.103,219.562 360.5,218.5C 359.833,219.167 359.167,219.833 358.5,220.5C 353.553,219.717 348.553,219.217 343.5,219C 342.944,218.617 342.611,218.117 342.5,217.5C 350.352,217.825 358.018,217.492 365.5,216.5C 367.468,208.567 368.135,200.234 367.5,191.5C 368.314,193.631 368.814,195.964 369,198.5C 369.333,197.167 369.667,195.833 370,194.5C 370.333,194.833 370.667,195.167 371,195.5C 371.333,190.5 371.667,185.5 372,180.5C 372.333,181.833 372.667,183.167 373,184.5C 373.181,181.305 373.681,178.305 374.5,175.5 Z"/></g>
<g><path style="opacity:1" fill="#a5a4a9" d="M 228.5,215.5 C 229.552,215.351 230.552,215.517 231.5,216C 232.738,216.69 232.738,217.19 231.5,217.5C 224.646,217.824 217.979,217.491 211.5,216.5C 217.358,216.822 223.025,216.489 228.5,215.5 Z"/></g>
<g><path style="opacity:1" fill="#3b3a52" d="M 373.5,221.5 C 373.389,222.117 373.056,222.617 372.5,223C 359.66,223.169 346.993,223.669 334.5,224.5C 333.646,219.765 331.979,219.432 329.5,223.5C 328.766,221.185 327.432,219.352 325.5,218C 326.925,216.286 326.592,214.953 324.5,214C 325.737,213.768 326.737,213.268 327.5,212.5C 332.575,214.375 335.575,212.708 336.5,207.5C 338.143,207.52 339.476,206.853 340.5,205.5C 341.251,206.376 341.751,207.376 342,208.5C 342.333,208.167 342.667,207.833 343,207.5C 343.483,208.448 343.649,209.448 343.5,210.5C 343.598,212.553 342.931,214.22 341.5,215.5C 340.243,216.623 340.576,217.289 342.5,217.5C 342.611,218.117 342.944,218.617 343.5,219C 348.553,219.217 353.553,219.717 358.5,220.5C 359.167,219.833 359.833,219.167 360.5,218.5C 363.103,219.562 365.77,219.728 368.5,219C 368.167,218.667 367.833,218.333 367.5,218C 368.274,215.595 368.774,213.095 369,210.5C 369.333,212.167 369.667,213.833 370,215.5C 370.333,210.167 370.667,204.833 371,199.5C 371.807,205.416 371.641,211.25 370.5,217C 372.439,217.908 373.439,219.408 373.5,221.5 Z"/></g>
<g><path style="opacity:1" fill="#a9a9ab" d="M 341.5,215.5 C 349.316,216.492 357.316,216.826 365.5,216.5C 358.018,217.492 350.352,217.825 342.5,217.5C 340.576,217.289 340.243,216.623 341.5,215.5 Z"/></g>
<g><path style="opacity:1" fill="#48475b" d="M 198.5,221.5 C 198.5,223.167 198.5,224.833 198.5,226.5C 207.809,227.317 217.143,227.65 226.5,227.5C 226.908,228.643 227.575,229.643 228.5,230.5C 231.53,229.078 233.364,226.745 234,223.5C 234.317,225.301 234.984,225.634 236,224.5C 236.265,226.163 235.765,227.663 234.5,229C 234.565,230.829 234.898,232.662 235.5,234.5C 221.829,234.667 208.163,234.5 194.5,234C 191.965,233.072 190.965,231.238 191.5,228.5C 192.156,229.278 192.989,229.944 194,230.5C 196.927,230.229 199.761,230.229 202.5,230.5C 199.848,229.347 197.848,227.513 196.5,225C 197.085,223.698 197.751,222.531 198.5,221.5 Z"/></g>
<g><path style="opacity:1" fill="#353647" d="M 387.5,222.5 C 387.665,225.85 387.498,229.183 387,232.5C 386.25,233.126 385.416,233.626 384.5,234C 370.837,234.5 357.171,234.667 343.5,234.5C 343.082,233.778 342.416,233.278 341.5,233C 343.301,232.683 343.634,232.016 342.5,231C 348.19,230.531 353.857,229.864 359.5,229C 356.333,228.833 353.167,228.667 350,228.5C 346.397,228.55 343.064,229.217 340,230.5C 339.667,229.833 339.333,229.167 339,228.5C 337.649,229.961 336.149,231.294 334.5,232.5C 333.081,231.995 332.415,230.995 332.5,229.5C 333.5,228.833 334.5,228.167 335.5,227.5C 349.912,227.816 364.245,227.482 378.5,226.5C 378.5,227.833 378.5,229.167 378.5,230.5C 383.279,232.438 385.946,230.771 386.5,225.5C 383.567,223.262 383.901,222.262 387.5,222.5 Z"/></g>
<g><path style="opacity:1" fill="#424057" d="M 270.5,213.5 C 270.833,213.5 271.167,213.5 271.5,213.5C 272.626,215.453 274.292,216.953 276.5,218C 273.057,218.221 272.724,219.221 275.5,221C 275.272,221.399 274.938,221.565 274.5,221.5C 270.869,221.16 267.536,221.994 264.5,224C 260.333,227.5 256.5,231.333 253,235.5C 252.83,241.149 255.663,243.482 261.5,242.5C 261.586,243.496 261.252,244.329 260.5,245C 258.167,245.333 255.833,245.667 253.5,246C 256.897,247.193 260.23,247.526 263.5,247C 262.273,248.587 262.606,249.921 264.5,251C 263.833,251.333 263.167,251.667 262.5,252C 264.439,252.908 265.439,254.408 265.5,256.5C 263.133,255.129 261.467,253.129 260.5,250.5C 252.041,249.685 246.708,245.351 244.5,237.5C 243.884,235.583 242.55,234.416 240.5,234C 242.684,233.133 244.851,232.299 247,231.5C 248.82,232.484 250.32,232.317 251.5,231C 250.833,230.667 250.167,230.333 249.5,230C 251.295,228.115 252.628,225.948 253.5,223.5C 254.167,222.167 255.167,221.167 256.5,220.5C 258.541,220.445 260.708,220.445 263,220.5C 263.5,220 264,219.5 264.5,219C 262.291,218.043 262.457,216.876 265,215.5C 268.095,219.384 269.929,218.717 270.5,213.5 Z"/></g>
<g><path style="opacity:1" fill="#3e3c55" d="M 332.5,229.5 C 332.415,230.995 333.081,231.995 334.5,232.5C 336.149,231.294 337.649,229.961 339,228.5C 339.333,229.167 339.667,229.833 340,230.5C 343.064,229.217 346.397,228.55 350,228.5C 353.167,228.667 356.333,228.833 359.5,229C 353.857,229.864 348.19,230.531 342.5,231C 343.634,232.016 343.301,232.683 341.5,233C 342.416,233.278 343.082,233.778 343.5,234.5C 339.818,234.335 336.152,234.501 332.5,235C 328.542,239.167 323.876,240.667 318.5,239.5C 317.389,238.34 316.389,237.007 315.5,235.5C 315.089,236.262 314.923,237.262 315,238.5C 314.25,237.874 313.416,237.374 312.5,237C 312.833,236.667 313.167,236.333 313.5,236C 310.962,234.829 310.462,233.329 312,231.5C 314.091,234.402 316.258,234.735 318.5,232.5C 319.695,232.678 320.862,233.011 322,233.5C 323.643,232.685 325.143,231.685 326.5,230.5C 327.834,228.534 329.168,226.534 330.5,224.5C 331.322,226.139 331.989,227.805 332.5,229.5 Z"/></g>
<g><path style="opacity:1" fill="#47465a" d="M 229.5,207.5 C 230.641,209.243 232.308,210.243 234.5,210.5C 236.97,209.763 239.304,208.763 241.5,207.5C 240.969,210.888 242.303,212.888 245.5,213.5C 243.205,216.297 240.705,218.964 238,221.5C 237.674,228.512 240.841,231.012 247.5,229C 249.37,226.96 251.37,225.127 253.5,223.5C 252.628,225.948 251.295,228.115 249.5,230C 250.167,230.333 250.833,230.667 251.5,231C 250.32,232.317 248.82,232.484 247,231.5C 244.851,232.299 242.684,233.133 240.5,234C 242.55,234.416 243.884,235.583 244.5,237.5C 241.298,236.953 238.298,235.953 235.5,234.5C 234.898,232.662 234.565,230.829 234.5,229C 235.765,227.663 236.265,226.163 236,224.5C 234.984,225.634 234.317,225.301 234,223.5C 233.364,226.745 231.53,229.078 228.5,230.5C 227.575,229.643 226.908,228.643 226.5,227.5C 227.688,226.316 228.855,226.316 230,227.5C 230.49,226.207 230.657,224.873 230.5,223.5C 243.129,216.544 243.129,212.211 230.5,210.5C 229.833,211.5 229.167,212.5 228.5,213.5C 228.167,213.333 227.833,213.167 227.5,213C 228.464,211.275 229.131,209.441 229.5,207.5 Z"/></g>
<g><path style="opacity:1" fill="#4a485d" d="M 271.5,213.5 C 277.888,214.02 281.888,217.354 283.5,223.5C 283.291,224.086 282.957,224.586 282.5,225C 289.215,225.383 293.049,228.883 294,235.5C 295.397,237.07 296.897,238.404 298.5,239.5C 296.366,240.569 294.2,240.236 292,238.5C 292.112,240.178 292.612,241.845 293.5,243.5C 293.457,244.416 293.124,245.083 292.5,245.5C 291.5,241.5 290.5,241.5 289.5,245.5C 288.448,245.649 287.448,245.483 286.5,245C 287.731,243.817 287.731,242.651 286.5,241.5C 285.579,243.756 283.912,244.756 281.5,244.5C 282.916,241.432 284.25,238.266 285.5,235C 285.257,234.098 284.923,233.265 284.5,232.5C 285.267,231.828 285.934,230.995 286.5,230C 284.693,229.072 283.026,227.906 281.5,226.5C 280.914,226.709 280.414,227.043 280,227.5C 281.053,224.482 280.053,222.148 277,220.5C 278.201,224.53 277.368,228.196 274.5,231.5C 275.167,232.167 275.833,232.833 276.5,233.5C 274.345,233.838 272.011,233.838 269.5,233.5C 272.922,230.019 274.588,226.019 274.5,221.5C 274.938,221.565 275.272,221.399 275.5,221C 272.724,219.221 273.057,218.221 276.5,218C 274.292,216.953 272.626,215.453 271.5,213.5 Z"/></g>
<g><path style="opacity:1" fill="#444256" d="M 318.5,232.5 C 316.258,234.735 314.091,234.402 312,231.5C 310.462,233.329 310.962,234.829 313.5,236C 313.167,236.333 312.833,236.667 312.5,237C 313.416,237.374 314.25,237.874 315,238.5C 314.923,237.262 315.089,236.262 315.5,235.5C 316.389,237.007 317.389,238.34 318.5,239.5C 316.178,241.586 314.178,244.086 312.5,247C 308.53,249.517 304.364,250.017 300,248.5C 296.791,254.523 291.958,256.857 285.5,255.5C 286.058,254.21 287.058,253.377 288.5,253C 287.167,252 287.167,251 288.5,250C 287,249.167 285.833,248 285,246.5C 283.68,246.799 282.18,246.966 280.5,247C 281.022,247.561 281.355,248.228 281.5,249C 279.994,250.838 278.494,252.671 277,254.5C 275.667,253.167 274.333,253.167 273,254.5C 271.676,253.12 270.343,252.786 269,253.5C 266.033,252.658 265.866,251.658 268.5,250.5C 270.258,250.877 271.925,251.544 273.5,252.5C 276.621,250.23 279.287,247.563 281.5,244.5C 283.912,244.756 285.579,243.756 286.5,241.5C 287.731,242.651 287.731,243.817 286.5,245C 287.448,245.483 288.448,245.649 289.5,245.5C 290.833,245.5 291.5,246.167 291.5,247.5C 292.338,247.158 292.672,246.492 292.5,245.5C 293.124,245.083 293.457,244.416 293.5,243.5C 292.612,241.845 292.112,240.178 292,238.5C 294.2,240.236 296.366,240.569 298.5,239.5C 300.9,242.24 303.9,243.073 307.5,242C 309.282,239.757 309.782,237.257 309,234.5C 303.985,229.318 298.819,224.318 293.5,219.5C 291.449,214.383 293.115,212.549 298.5,214C 304.762,220.768 311.429,226.935 318.5,232.5 Z M 292.5,245.5 C 292.672,246.492 292.338,247.158 291.5,247.5C 291.5,246.167 290.833,245.5 289.5,245.5C 290.5,241.5 291.5,241.5 292.5,245.5 Z"/></g>
<g><path style="opacity:1" fill="#39384f" d="M 284.5,232.5 C 281.735,232.798 279.235,233.798 277,235.5C 274.705,238.797 272.038,241.797 269,244.5C 267.668,246.55 267.502,248.55 268.5,250.5C 265.866,251.658 266.033,252.658 269,253.5C 270.343,252.786 271.676,253.12 273,254.5C 274.333,253.167 275.667,253.167 277,254.5C 278.494,252.671 279.994,250.838 281.5,249C 281.355,248.228 281.022,247.561 280.5,247C 282.18,246.966 283.68,246.799 285,246.5C 285.833,248 287,249.167 288.5,250C 287.167,251 287.167,252 288.5,253C 287.058,253.377 286.058,254.21 285.5,255.5C 282.9,254.794 280.567,255.628 278.5,258C 273.915,259.94 269.581,259.44 265.5,256.5C 265.439,254.408 264.439,252.908 262.5,252C 263.167,251.667 263.833,251.333 264.5,251C 262.606,249.921 262.273,248.587 263.5,247C 260.23,247.526 256.897,247.193 253.5,246C 255.833,245.667 258.167,245.333 260.5,245C 261.252,244.329 261.586,243.496 261.5,242.5C 264.167,239.5 266.833,236.5 269.5,233.5C 272.011,233.838 274.345,233.838 276.5,233.5C 275.833,232.833 275.167,232.167 274.5,231.5C 277.368,228.196 278.201,224.53 277,220.5C 280.053,222.148 281.053,224.482 280,227.5C 280.414,227.043 280.914,226.709 281.5,226.5C 283.026,227.906 284.693,229.072 286.5,230C 285.934,230.995 285.267,231.828 284.5,232.5 Z"/></g>
<g><path style="opacity:1" fill="#46445b" d="M 444.5,300.5 C 444.5,299.833 444.167,299.5 443.5,299.5C 443.585,298.005 442.919,297.005 441.5,296.5C 438.874,297.292 436.208,297.959 433.5,298.5C 432.287,298.747 431.62,299.414 431.5,300.5C 426.882,301.076 422.715,300.076 419,297.5C 418.503,295.19 418.337,292.857 418.5,290.5C 429.8,289.399 441.133,289.233 452.5,290C 456.483,294.087 455.817,297.42 450.5,300C 448.527,300.495 446.527,300.662 444.5,300.5 Z"/></g>
<g><path style="opacity:1" fill="#3f3f52" d="M 205.5,310.5 C 204.005,310.585 203.005,309.919 202.5,308.5C 204.167,306.667 205.833,304.833 207.5,303C 207.167,302.667 206.833,302.333 206.5,302C 207.579,301.044 208.745,300.211 210,299.5C 210.781,298.056 210.614,296.723 209.5,295.5C 205.605,296.562 203.271,299.062 202.5,303C 201.552,303.483 200.552,303.649 199.5,303.5C 199.5,303.167 199.5,302.833 199.5,302.5C 201.283,297.768 203.949,293.601 207.5,290C 213.981,288.643 216.481,291.143 215,297.5C 212.304,302.246 209.137,306.579 205.5,310.5 Z"/></g>
<g><path style="opacity:1" fill="#3a3850" d="M 262.5,296.5 C 262.306,298.912 260.973,299.912 258.5,299.5C 250.983,298.637 243.649,297.97 236.5,297.5C 236.334,301.846 236.501,306.179 237,310.5C 238.309,312.891 239.309,312.891 240,310.5C 241.399,311.227 242.899,311.727 244.5,312C 243.346,312.914 243.513,313.747 245,314.5C 245.333,313.833 245.667,313.167 246,312.5C 246.318,314.061 247.151,315.228 248.5,316C 246.527,318.015 244.86,317.848 243.5,315.5C 242.264,316.246 240.93,316.579 239.5,316.5C 239.263,312.711 238.596,312.711 237.5,316.5C 236.778,316.918 236.278,317.584 236,318.5C 235.311,317.643 234.478,316.977 233.5,316.5C 232.903,314.459 232.903,312.626 233.5,311C 232.244,310.583 231.577,309.75 231.5,308.5C 231.334,303.821 231.501,299.155 232,294.5C 232.519,293.484 233.353,292.818 234.5,292.5C 242.277,291.365 250.277,291.365 258.5,292.5C 259.521,294.188 260.855,295.521 262.5,296.5 Z"/></g>
<g><path style="opacity:1" fill="#403e54" d="M 290.5,306.5 C 288.403,306.997 286.57,307.33 285,307.5C 282.876,303.745 279.876,302.745 276,304.5C 275.517,305.448 275.351,306.448 275.5,307.5C 273.1,296.03 277.933,289.697 290,288.5C 297.45,288.291 302.283,291.624 304.5,298.5C 304.5,301.833 302.833,303.5 299.5,303.5C 296.327,302.334 293.16,301.001 290,299.5C 284.212,301.982 284.379,304.316 290.5,306.5 Z"/></g>
<g><path style="opacity:1" fill="#464558" d="M 341.5,327.5 C 340.674,322.684 340.174,317.684 340,312.5C 339.346,313.696 338.846,313.696 338.5,312.5C 339.447,309.977 339.447,307.311 338.5,304.5C 339.167,303.833 339.833,303.167 340.5,302.5C 338.316,303.108 336.316,302.441 334.5,300.5C 333.571,312.965 333.238,325.299 333.5,337.5C 332.25,337.423 331.417,336.756 331,335.5C 330.5,323.838 330.333,312.171 330.5,300.5C 326.04,301.115 322.04,300.115 318.5,297.5C 317.218,294.507 317.885,292.007 320.5,290C 331.167,289.333 341.833,289.333 352.5,290C 355.167,293 355.167,296 352.5,299C 349.029,300.036 345.529,300.869 342,301.5C 341.5,310.16 341.334,318.827 341.5,327.5 Z"/></g>
<g><path style="opacity:1" fill="#424055" d="M 399.5,312.5 C 398.778,312.082 398.278,311.416 398,310.5C 397.667,310.833 397.333,311.167 397,311.5C 396.51,310.207 396.343,308.873 396.5,307.5C 393.402,307.413 393.068,307.913 395.5,309C 395,309.5 394.5,310 394,310.5C 393.241,308.937 392.074,307.937 390.5,307.5C 389.402,306.603 389.402,305.77 390.5,305C 387.644,302.85 385.977,303.683 385.5,307.5C 386.612,308.265 387.279,309.265 387.5,310.5C 385.478,311.507 384.145,313.174 383.5,315.5C 382.833,315.5 382.5,315.833 382.5,316.5C 381.732,317.263 381.232,318.263 381,319.5C 380.5,319 380,318.5 379.5,318C 379.941,314.561 381.608,311.894 384.5,310C 382.109,309.309 382.109,308.309 384.5,307C 382.568,305.028 382.068,302.862 383,300.5C 380.63,303.039 378.13,305.372 375.5,307.5C 377.48,302.198 379.48,296.865 381.5,291.5C 383.867,289.605 386.534,289.105 389.5,290C 393.787,297.074 397.12,304.574 399.5,312.5 Z"/></g>
<g><path style="opacity:1" fill="#575569" d="M 468.5,289.5 C 477.839,289.334 487.173,289.5 496.5,290C 499.379,291.666 500.212,294.166 499,297.5C 498.097,298.701 496.931,299.535 495.5,300C 488.842,300.5 482.175,300.666 475.5,300.5C 475.5,303.167 475.5,305.833 475.5,308.5C 480.844,308.334 486.177,308.501 491.5,309C 492.416,309.278 493.082,309.778 493.5,310.5C 487.84,311.355 482.174,311.688 476.5,311.5C 475.032,310.194 473.699,308.694 472.5,307C 473.833,305.333 473.833,303.667 472.5,302C 475.028,300.684 475.028,299.517 472.5,298.5C 479.105,297.218 485.772,296.384 492.5,296C 492.201,294.68 492.034,293.18 492,291.5C 486.181,291.251 480.181,291.584 474,292.5C 471.258,292.884 469.425,291.884 468.5,289.5 Z"/></g>
<g><path style="opacity:1" fill="#3c3956" d="M 145.5,289.5 C 145.833,289.5 146.167,289.5 146.5,289.5C 149.563,290.201 152.73,290.868 156,291.5C 158.091,290.5 159.757,291.167 161,293.5C 162,292.5 163,291.5 164,290.5C 163.621,292.075 163.788,293.575 164.5,295C 160.097,296.135 155.597,296.968 151,297.5C 150.586,297.043 150.086,296.709 149.5,296.5C 147.999,297.752 146.332,298.752 144.5,299.5C 143.893,299.376 143.56,299.043 143.5,298.5C 141.974,296.87 139.974,296.037 137.5,296C 138.833,295 138.833,294 137.5,293C 138,292.5 138.5,292 139,291.5C 140.399,291.501 141.899,291.835 143.5,292.5C 144.919,291.995 145.585,290.995 145.5,289.5 Z"/></g>
<g><path style="opacity:1" fill="#5a5969" d="M 262.5,296.5 C 260.855,295.521 259.521,294.188 258.5,292.5C 250.277,291.365 242.277,291.365 234.5,292.5C 233.353,292.818 232.519,293.484 232,294.5C 231.501,299.155 231.334,303.821 231.5,308.5C 230.673,315.233 230.339,322.066 230.5,329C 231.406,331.791 232.073,334.624 232.5,337.5C 241.839,337.666 251.173,337.5 260.5,337C 259.903,335.111 259.569,333.278 259.5,331.5C 258.272,329.679 256.606,328.679 254.5,328.5C 259.144,326.952 262.144,328.619 263.5,333.5C 263.24,335.187 262.573,336.687 261.5,338C 251.5,338.667 241.5,338.667 231.5,338C 230.667,337.167 229.833,336.333 229,335.5C 228.333,321.167 228.333,306.833 229,292.5C 229.5,291.333 230.333,290.5 231.5,290C 241.167,289.333 250.833,289.333 260.5,290C 263.292,291.687 263.958,293.853 262.5,296.5 Z"/></g>
<g><path style="opacity:1" fill="#43425a" d="M 443.5,299.5 C 441.598,302.337 440.931,305.671 441.5,309.5C 442.414,312.728 442.747,316.061 442.5,319.5C 441.695,325.016 441.028,330.682 440.5,336.5C 436.807,336.814 434.473,335.148 433.5,331.5C 434.025,330.808 434.692,330.308 435.5,330C 435.009,328.206 435.009,326.206 435.5,324C 435.057,320.788 434.057,317.788 432.5,315C 433.516,314.481 434.182,313.647 434.5,312.5C 433.959,309.792 433.292,307.126 432.5,304.5C 434.092,302.775 433.758,301.775 431.5,301.5C 431.5,301.167 431.5,300.833 431.5,300.5C 431.62,299.414 432.287,298.747 433.5,298.5C 436.208,297.959 438.874,297.292 441.5,296.5C 442.919,297.005 443.585,298.005 443.5,299.5 Z"/></g>
<g><path style="opacity:1" fill="#b5b5b5" d="M 443.5,299.5 C 444.167,299.5 444.5,299.833 444.5,300.5C 442.89,303.203 441.89,306.203 441.5,309.5C 440.931,305.671 441.598,302.337 443.5,299.5 Z"/></g>
<g><path style="opacity:1" fill="#403d56" d="M 468.5,289.5 C 469.425,291.884 471.258,292.884 474,292.5C 480.181,291.584 486.181,291.251 492,291.5C 492.034,293.18 492.201,294.68 492.5,296C 485.772,296.384 479.105,297.218 472.5,298.5C 475.028,299.517 475.028,300.684 472.5,302C 473.833,303.667 473.833,305.333 472.5,307C 473.699,308.694 475.032,310.194 476.5,311.5C 475.178,311.33 474.011,311.663 473,312.5C 472.517,311.552 472.351,310.552 472.5,309.5C 471.167,309.5 469.833,309.5 468.5,309.5C 468.822,315.358 468.489,321.025 467.5,326.5C 467.791,314.783 467.458,303.116 466.5,291.5C 466.833,290.5 467.5,289.833 468.5,289.5 Z"/></g>
<g><path style="opacity:1" fill="#4e4d5d" d="M 145.5,289.5 C 145.585,290.995 144.919,291.995 143.5,292.5C 141.899,291.835 140.399,291.501 139,291.5C 138.5,292 138,292.5 137.5,293C 138.833,294 138.833,295 137.5,296C 139.974,296.037 141.974,296.87 143.5,298.5C 142.504,298.586 141.671,298.252 141,297.5C 140.333,298.833 139.333,299.833 138,300.5C 137.8,307.883 137.3,315.216 136.5,322.5C 137.781,325.432 137.114,327.932 134.5,330C 135.167,331 135.833,332 136.5,333C 135.663,334.011 135.33,335.178 135.5,336.5C 134.732,335.737 134.232,334.737 134,333.5C 133.576,320.769 133.576,308.103 134,295.5C 134.163,293.324 134.996,291.491 136.5,290C 139.482,289.502 142.482,289.335 145.5,289.5 Z"/></g>
<g><path style="opacity:1" fill="#434159" d="M 146.5,289.5 C 152.842,289.334 159.175,289.5 165.5,290C 168.778,292.288 169.278,295.121 167,298.5C 165.933,299.191 164.766,299.691 163.5,300C 157.472,300.17 151.472,300.67 145.5,301.5C 144.626,303.747 144.292,306.08 144.5,308.5C 144.703,310.044 145.37,311.378 146.5,312.5C 144.817,315.543 143.483,318.709 142.5,322C 142.833,322.333 143.167,322.667 143.5,323C 142.5,323.833 141.5,324.667 140.5,325.5C 142.297,327.131 143.464,329.131 144,331.5C 144.69,330.262 145.19,330.262 145.5,331.5C 145.631,332.239 145.464,332.906 145,333.5C 144.107,332.289 143.274,332.289 142.5,333.5C 144.059,335.131 146.059,335.964 148.5,336C 148.167,336.333 147.833,336.667 147.5,337C 143.975,337.179 140.641,337.679 137.5,338.5C 136.5,338.167 135.833,337.5 135.5,336.5C 135.33,335.178 135.663,334.011 136.5,333C 135.833,332 135.167,331 134.5,330C 137.114,327.932 137.781,325.432 136.5,322.5C 137.3,315.216 137.8,307.883 138,300.5C 139.333,299.833 140.333,298.833 141,297.5C 141.671,298.252 142.504,298.586 143.5,298.5C 143.56,299.043 143.893,299.376 144.5,299.5C 146.332,298.752 147.999,297.752 149.5,296.5C 150.086,296.709 150.586,297.043 151,297.5C 155.597,296.968 160.097,296.135 164.5,295C 163.788,293.575 163.621,292.075 164,290.5C 163,291.5 162,292.5 161,293.5C 159.757,291.167 158.091,290.5 156,291.5C 152.73,290.868 149.563,290.201 146.5,289.5 Z"/></g>
<g><path style="opacity:1" fill="#424156" d="M 199.5,302.5 C 199.5,302.833 199.5,303.167 199.5,303.5C 198.711,303.783 198.044,304.283 197.5,305C 201.69,310.177 200.357,312.844 193.5,313C 194.711,312.107 194.711,311.274 193.5,310.5C 192.253,312.006 192.253,313.506 193.5,315C 191.878,316.295 190.545,317.795 189.5,319.5C 189.608,320.442 189.941,321.275 190.5,322C 189.5,322.333 188.5,322.667 187.5,323C 188.517,324.049 188.684,325.216 188,326.5C 187.549,324.071 186.715,323.904 185.5,326C 186.451,326.718 186.617,327.551 186,328.5C 184.701,328.034 183.201,328.034 181.5,328.5C 184.943,323.122 188.276,317.622 191.5,312C 188.742,306.907 185.575,302.073 182,297.5C 180.5,291 183,288.5 189.5,290C 193.077,294.066 196.411,298.232 199.5,302.5 Z"/></g>
<g><path style="opacity:1" fill="#3a3952" d="M 341.5,327.5 C 341.665,330.518 341.498,333.518 341,336.5C 338.621,339.665 336.121,339.999 333.5,337.5C 333.238,325.299 333.571,312.965 334.5,300.5C 336.316,302.441 338.316,303.108 340.5,302.5C 339.833,303.167 339.167,303.833 338.5,304.5C 339.447,307.311 339.447,309.977 338.5,312.5C 338.846,313.696 339.346,313.696 340,312.5C 340.174,317.684 340.674,322.684 341.5,327.5 Z"/></g>
<g><path style="opacity:1" fill="#3e3c52" d="M 91.5,292.5 C 91.0137,294.807 91.0137,296.973 91.5,299C 89.2908,299.957 89.4575,301.124 92,302.5C 92.3333,301.833 92.6667,301.167 93,300.5C 93.0601,303.787 92.8934,307.12 92.5,310.5C 91.3501,309.15 90.6834,309.316 90.5,311C 91.9523,319.875 91.7857,328.709 90,337.5C 86.8006,340.129 83.8006,339.796 81,336.5C 80.3333,321.833 80.3333,307.167 81,292.5C 84.6226,288.522 88.1226,288.522 91.5,292.5 Z"/></g>
<g><path style="opacity:1" fill="#454357" d="M 91.5,292.5 C 96.5419,298.208 101.209,304.208 105.5,310.5C 104.312,309.316 103.145,309.316 102,310.5C 100.182,308.355 98.6825,308.355 97.5,310.5C 99.4545,312.668 100.121,315.002 99.5,317.5C 101.162,318.327 102.495,319.493 103.5,321C 102.906,321.464 102.239,321.631 101.5,321.5C 98.1518,318.149 95.1518,314.482 92.5,310.5C 92.8934,307.12 93.0601,303.787 93,300.5C 92.6667,301.167 92.3333,301.833 92,302.5C 89.4575,301.124 89.2908,299.957 91.5,299C 91.0137,296.973 91.0137,294.807 91.5,292.5 Z"/></g>
<g><path style="opacity:1" fill="#3a3850" d="M 290.5,306.5 C 291.303,310.671 293.636,312.337 297.5,311.5C 301.077,312.17 301.91,313.836 300,316.5C 299.333,315.833 298.667,315.167 298,314.5C 297.29,315.973 296.124,316.64 294.5,316.5C 291.091,315.097 287.425,314.43 283.5,314.5C 279.587,313.55 276.92,311.217 275.5,307.5C 275.351,306.448 275.517,305.448 276,304.5C 279.876,302.745 282.876,303.745 285,307.5C 286.57,307.33 288.403,306.997 290.5,306.5 Z"/></g>
<g><path style="opacity:1" fill="#3f3d54" d="M 476.5,311.5 C 482.174,311.688 487.84,311.355 493.5,310.5C 494.152,311.449 494.486,312.615 494.5,314C 494.693,316.008 494.026,317.508 492.5,318.5C 486.5,318.5 480.5,318.5 474.5,318.5C 474.263,319.791 474.596,320.791 475.5,321.5C 475.244,323.792 475.577,325.959 476.5,328C 483.5,328.333 490.5,328.667 497.5,329C 499.856,330.827 500.523,332.993 499.5,335.5C 497.52,334.152 496.353,332.152 496,329.5C 495.333,330.833 494.667,330.833 494,329.5C 488.645,330.982 483.145,331.982 477.5,332.5C 476.359,333.425 476.359,334.259 477.5,335C 470.14,335.658 469.806,336.824 476.5,338.5C 473.813,338.664 471.146,338.497 468.5,338C 467.584,337.722 466.918,337.222 466.5,336.5C 467.414,333.272 467.747,329.939 467.5,326.5C 468.489,321.025 468.822,315.358 468.5,309.5C 469.833,309.5 471.167,309.5 472.5,309.5C 472.351,310.552 472.517,311.552 473,312.5C 474.011,311.663 475.178,311.33 476.5,311.5 Z"/></g>
<g><path style="opacity:1" fill="#49475c" d="M 144.5,308.5 C 149.844,308.334 155.177,308.501 160.5,309C 164.977,311.944 165.311,315.277 161.5,319C 155.843,319.499 150.176,319.666 144.5,319.5C 144.5,322.167 144.5,324.833 144.5,327.5C 149.837,328.168 155.337,328.168 161,327.5C 166.85,327.616 169.017,330.283 167.5,335.5C 165.895,331.933 163.061,329.933 159,329.5C 154.234,330.402 149.734,331.068 145.5,331.5C 145.19,330.262 144.69,330.262 144,331.5C 143.464,329.131 142.297,327.131 140.5,325.5C 141.5,324.667 142.5,323.833 143.5,323C 143.167,322.667 142.833,322.333 142.5,322C 143.483,318.709 144.817,315.543 146.5,312.5C 145.37,311.378 144.703,310.044 144.5,308.5 Z"/></g>
<g><path style="opacity:1" fill="#514f65" d="M 258.5,299.5 C 252.355,300.49 246.022,300.823 239.5,300.5C 239.5,303.167 239.5,305.833 239.5,308.5C 244.844,308.334 250.177,308.501 255.5,309C 259.386,312.465 259.386,315.798 255.5,319C 250.177,319.499 244.844,319.666 239.5,319.5C 239.5,322.5 239.5,325.5 239.5,328.5C 238.849,329.091 238.182,329.757 237.5,330.5C 236.236,326.82 236.236,323.153 237.5,319.5C 238.376,318.749 239.376,318.249 240.5,318C 239.263,317.768 238.263,317.268 237.5,316.5C 238.596,312.711 239.263,312.711 239.5,316.5C 240.93,316.579 242.264,316.246 243.5,315.5C 244.86,317.848 246.527,318.015 248.5,316C 247.151,315.228 246.318,314.061 246,312.5C 245.667,313.167 245.333,313.833 245,314.5C 243.513,313.747 243.346,312.914 244.5,312C 242.899,311.727 241.399,311.227 240,310.5C 239.309,312.891 238.309,312.891 237,310.5C 236.501,306.179 236.334,301.846 236.5,297.5C 243.649,297.97 250.983,298.637 258.5,299.5 Z"/></g>
<g><path style="opacity:1" fill="#3a3751" d="M 390.5,307.5 C 392.074,307.937 393.241,308.937 394,310.5C 394.5,310 395,309.5 395.5,309C 393.068,307.913 393.402,307.413 396.5,307.5C 396.343,308.873 396.51,310.207 397,311.5C 397.333,311.167 397.667,310.833 398,310.5C 398.278,311.416 398.778,312.082 399.5,312.5C 397.739,315.337 398.239,317.67 401,319.5C 402.499,323.473 402.666,327.473 401.5,331.5C 400.808,330.975 400.308,330.308 400,329.5C 399.282,330.451 398.449,330.617 397.5,330C 396.167,329.333 396.167,328.667 397.5,328C 394.462,325.844 394.128,323.511 396.5,321C 394.333,320.167 392.833,318.667 392,316.5C 391.236,313.234 390.736,310.234 390.5,307.5 Z"/></g>
<g><path style="opacity:1" fill="#3b3a50" d="M 231.5,308.5 C 231.577,309.75 232.244,310.583 233.5,311C 232.903,312.626 232.903,314.459 233.5,316.5C 234.478,316.977 235.311,317.643 236,318.5C 236.278,317.584 236.778,316.918 237.5,316.5C 238.263,317.268 239.263,317.768 240.5,318C 239.376,318.249 238.376,318.749 237.5,319.5C 236.236,323.153 236.236,326.82 237.5,330.5C 238.182,329.757 238.849,329.091 239.5,328.5C 244.5,328.5 249.5,328.5 254.5,328.5C 256.606,328.679 258.272,329.679 259.5,331.5C 259.569,333.278 259.903,335.111 260.5,337C 251.173,337.5 241.839,337.666 232.5,337.5C 232.073,334.624 231.406,331.791 230.5,329C 230.339,322.066 230.673,315.233 231.5,308.5 Z"/></g>
<g><path style="opacity:1" fill="#3d3b52" d="M 205.5,310.5 C 209.122,317.731 213.289,324.731 218,331.5C 218.768,338.211 215.935,340.211 209.5,337.5C 205.508,332.85 202.008,327.85 199,322.5C 195.045,327.578 191.211,332.744 187.5,338C 178.92,338.62 176.92,335.453 181.5,328.5C 183.201,328.034 184.701,328.034 186,328.5C 186.617,327.551 186.451,326.718 185.5,326C 186.715,323.904 187.549,324.071 188,326.5C 188.684,325.216 188.517,324.049 187.5,323C 188.5,322.667 189.5,322.333 190.5,322C 189.941,321.275 189.608,320.442 189.5,319.5C 190.545,317.795 191.878,316.295 193.5,315C 192.253,313.506 192.253,312.006 193.5,310.5C 194.711,311.274 194.711,312.107 193.5,313C 200.357,312.844 201.69,310.177 197.5,305C 198.044,304.283 198.711,303.783 199.5,303.5C 200.552,303.649 201.552,303.483 202.5,303C 203.271,299.062 205.605,296.562 209.5,295.5C 210.614,296.723 210.781,298.056 210,299.5C 208.745,300.211 207.579,301.044 206.5,302C 206.833,302.333 207.167,302.667 207.5,303C 205.833,304.833 204.167,306.667 202.5,308.5C 203.005,309.919 204.005,310.585 205.5,310.5 Z"/></g>
<g><path style="opacity:1" fill="#3d3b52" d="M 382.5,316.5 C 382.5,317.5 382.5,318.5 382.5,319.5C 386.308,319.163 389.974,319.663 393.5,321C 391.519,321.605 391.185,322.605 392.5,324C 389.728,326.139 387.062,325.973 384.5,323.5C 382.47,323.894 380.137,324.227 377.5,324.5C 377.414,326.677 376.747,328.677 375.5,330.5C 375.863,331.183 376.196,331.85 376.5,332.5C 375.304,338.567 371.971,340.4 366.5,338C 365.57,336.806 364.903,335.473 364.5,334C 367.704,324.864 371.371,316.031 375.5,307.5C 378.13,305.372 380.63,303.039 383,300.5C 382.068,302.862 382.568,305.028 384.5,307C 382.109,308.309 382.109,309.309 384.5,310C 381.608,311.894 379.941,314.561 379.5,318C 380,318.5 380.5,319 381,319.5C 381.232,318.263 381.732,317.263 382.5,316.5 Z"/></g>
<g><path style="opacity:1" fill="#a8a7ba" d="M 492.5,318.5 C 486.594,318.854 480.927,319.854 475.5,321.5C 474.596,320.791 474.263,319.791 474.5,318.5C 480.5,318.5 486.5,318.5 492.5,318.5 Z"/></g>
<g><path style="opacity:1" fill="#444258" d="M 101.5,321.5 C 102.239,321.631 102.906,321.464 103.5,321C 102.495,319.493 101.162,318.327 99.5,317.5C 100.121,315.002 99.4545,312.668 97.5,310.5C 98.6825,308.355 100.182,308.355 102,310.5C 103.145,309.316 104.312,309.316 105.5,310.5C 108.366,312.546 110.533,315.213 112,318.5C 112.208,309.632 112.708,300.798 113.5,292C 116.498,287.74 119.665,287.573 123,291.5C 123.667,306.167 123.667,320.833 123,335.5C 122.626,336.416 122.126,337.25 121.5,338C 119.167,338.667 116.833,338.667 114.5,338C 109.571,332.912 105.238,327.412 101.5,321.5 Z"/></g>
<g><path style="opacity:1" fill="#6a6977" d="M 466.5,291.5 C 467.458,303.116 467.791,314.783 467.5,326.5C 467.747,329.939 467.414,333.272 466.5,336.5C 465.778,336.082 465.278,335.416 465,334.5C 464.833,330.667 464.667,326.833 464.5,323C 464.985,313.216 465.151,303.383 465,293.5C 465.278,292.584 465.778,291.918 466.5,291.5 Z"/></g>
<g><path style="opacity:1" fill="#4c4b5d" d="M 431.5,301.5 C 433.758,301.775 434.092,302.775 432.5,304.5C 433.292,307.126 433.959,309.792 434.5,312.5C 434.182,313.647 433.516,314.481 432.5,315C 434.057,317.788 435.057,320.788 435.5,324C 435.009,326.206 435.009,328.206 435.5,330C 434.692,330.308 434.025,330.808 433.5,331.5C 434.473,335.148 436.807,336.814 440.5,336.5C 441.028,330.682 441.695,325.016 442.5,319.5C 442.91,325.621 442.41,331.621 441,337.5C 437.729,340.197 434.729,339.864 432,336.5C 431.8,325.633 431.3,314.8 430.5,304C 430.743,303.098 431.077,302.265 431.5,301.5 Z"/></g>
<g><path style="opacity:1" fill="#3f3c54" d="M 290.5,306.5 C 299.261,307.609 304.928,312.275 307.5,320.5C 307.19,321.738 306.69,321.738 306,320.5C 306.054,323.191 304.887,325.024 302.5,326C 303.167,326.333 303.833,326.667 304.5,327C 304.018,328.008 303.852,329.175 304,330.5C 303.667,330.167 303.333,329.833 303,329.5C 300.69,334.925 297.856,335.425 294.5,331C 297.174,327.661 298.007,323.827 297,319.5C 295.583,318.922 294.75,317.922 294.5,316.5C 296.124,316.64 297.29,315.973 298,314.5C 298.667,315.167 299.333,315.833 300,316.5C 301.91,313.836 301.077,312.17 297.5,311.5C 293.636,312.337 291.303,310.671 290.5,306.5 Z"/></g>
<g><path style="opacity:1" fill="#4a495b" d="M 390.5,307.5 C 390.736,310.234 391.236,313.234 392,316.5C 392.833,318.667 394.333,320.167 396.5,321C 394.128,323.511 394.462,325.844 397.5,328C 396.167,328.667 396.167,329.333 397.5,330C 398.449,330.617 399.282,330.451 400,329.5C 400.308,330.308 400.808,330.975 401.5,331.5C 402.666,327.473 402.499,323.473 401,319.5C 398.239,317.67 397.739,315.337 399.5,312.5C 402.487,319.716 405.487,327.05 408.5,334.5C 405.833,340.045 402.333,340.711 398,336.5C 396.259,333.691 395.092,330.691 394.5,327.5C 389.167,327.5 383.833,327.5 378.5,327.5C 378.598,329.553 377.931,331.22 376.5,332.5C 376.196,331.85 375.863,331.183 375.5,330.5C 376.747,328.677 377.414,326.677 377.5,324.5C 380.137,324.227 382.47,323.894 384.5,323.5C 387.062,325.973 389.728,326.139 392.5,324C 391.185,322.605 391.519,321.605 393.5,321C 389.974,319.663 386.308,319.163 382.5,319.5C 382.5,318.5 382.5,317.5 382.5,316.5C 382.5,315.833 382.833,315.5 383.5,315.5C 385.364,316.793 387.364,316.793 389.5,315.5C 388.544,313.925 387.877,312.258 387.5,310.5C 387.279,309.265 386.612,308.265 385.5,307.5C 385.977,303.683 387.644,302.85 390.5,305C 389.402,305.77 389.402,306.603 390.5,307.5 Z"/></g>
<g><path style="opacity:1" fill="#3d3c54" d="M 276.5,324.5 C 276.684,327.173 277.851,327.84 280,326.5C 280.098,328.619 280.931,330.286 282.5,331.5C 286.142,331.191 289.809,331.191 293.5,331.5C 293.448,333.903 293.781,336.236 294.5,338.5C 284.979,340.738 277.979,337.571 273.5,329C 273.414,326.648 274.414,325.148 276.5,324.5 Z"/></g>
<g><path style="opacity:1" fill="#47465a" d="M 283.5,314.5 C 287.425,314.43 291.091,315.097 294.5,316.5C 294.75,317.922 295.583,318.922 297,319.5C 298.007,323.827 297.174,327.661 294.5,331C 297.856,335.425 300.69,334.925 303,329.5C 303.333,329.833 303.667,330.167 304,330.5C 303.852,329.175 304.018,328.008 304.5,327C 303.833,326.667 303.167,326.333 302.5,326C 304.887,325.024 306.054,323.191 306,320.5C 306.69,321.738 307.19,321.738 307.5,320.5C 308.17,329.749 303.837,335.749 294.5,338.5C 293.781,336.236 293.448,333.903 293.5,331.5C 289.809,331.191 286.142,331.191 282.5,331.5C 280.931,330.286 280.098,328.619 280,326.5C 277.851,327.84 276.684,327.173 276.5,324.5C 277.601,323.402 278.934,323.235 280.5,324C 285.346,329.016 290.513,329.516 296,325.5C 296.743,323.559 296.576,321.726 295.5,320C 291.356,318.241 287.356,316.408 283.5,314.5 Z"/></g>
<g><path style="opacity:1" fill="#3a3850" d="M 499.5,335.5 C 499.047,336.458 498.381,337.292 497.5,338C 490.508,338.5 483.508,338.666 476.5,338.5C 469.806,336.824 470.14,335.658 477.5,335C 476.359,334.259 476.359,333.425 477.5,332.5C 483.145,331.982 488.645,330.982 494,329.5C 494.667,330.833 495.333,330.833 496,329.5C 496.353,332.152 497.52,334.152 499.5,335.5 Z"/></g>
<g><path style="opacity:1" fill="#413f55" d="M 167.5,335.5 C 167.586,336.496 167.252,337.329 166.5,338C 156.839,338.5 147.172,338.666 137.5,338.5C 140.641,337.679 143.975,337.179 147.5,337C 147.833,336.667 148.167,336.333 148.5,336C 146.059,335.964 144.059,335.131 142.5,333.5C 143.274,332.289 144.107,332.289 145,333.5C 145.464,332.906 145.631,332.239 145.5,331.5C 149.734,331.068 154.234,330.402 159,329.5C 163.061,329.933 165.895,331.933 167.5,335.5 Z"/></g>
</svg>
